<svg width="286" height="85" viewBox="0 0 286 85" fill="none" xmlns="http://www.w3.org/2000/svg">
<rect x="0.625324" y="20.1837" width="280.382" height="64.0423" rx="18.1623" transform="rotate(-4 0.625324 20.1837)" fill="#151515"/>
<rect x="0.625324" y="20.1837" width="280.382" height="64.0423" rx="18.1623" transform="rotate(-4 0.625324 20.1837)" stroke="#2A2A2A" stroke-width="1.17176"/>
<rect x="15.0078" y="32.6862" width="106.251" height="37.0917" rx="7.03058" transform="rotate(-4 15.0078 32.6862)" fill="#864CF6"/>
<path d="M45.0412 49.2286L38.7489 56.467L31.5102 50.1745C29.8294 48.7134 29.6512 46.1665 31.1121 44.4856C32.5732 42.8045 35.1205 42.6263 36.8015 44.0875L37.9533 45.0888L38.9537 43.9375C40.4148 42.2563 42.9622 42.078 44.6432 43.5393L44.6434 43.5394C46.3243 45.0006 46.5024 47.5477 45.0412 49.2286Z" stroke="white" stroke-width="2.34353"/>
<path d="M62.5993 42.8167L62.7243 44.6043L59.7038 44.8155L60.2848 53.1235L58.1615 53.2719L57.5806 44.964L54.5465 45.1762L54.4215 43.3886L62.5993 42.8167ZM63.1616 46.2324C63.6316 45.5388 64.4944 45.1481 65.7501 45.0603C66.5674 45.0032 67.3047 45.1145 67.9621 45.3943C68.6194 45.6741 68.9795 46.2638 69.0424 47.1633L69.2819 50.5878C69.2985 50.8253 69.3232 51.1126 69.356 51.4499C69.3875 51.7046 69.4385 51.8754 69.5088 51.9623C69.5791 52.0491 69.6803 52.1177 69.8123 52.1682L69.8324 52.4558L67.7092 52.6043C67.6393 52.4578 67.5883 52.3191 67.5562 52.1883C67.5241 52.0575 67.4953 51.908 67.4698 51.7401C67.2208 52.0511 66.9277 52.3217 66.5905 52.5517C66.1874 52.8231 65.7209 52.9773 65.1913 53.0144C64.5155 53.0616 63.9428 52.909 63.473 52.5564C63.0076 52.1989 62.7501 51.6663 62.7006 50.9586C62.6364 50.0408 62.9438 49.3517 63.6228 48.8913C63.9953 48.6404 64.5549 48.4407 65.3016 48.2921L65.9602 48.1635C66.3177 48.0926 66.5717 48.0175 66.7221 47.9381C66.9924 47.7999 67.1187 47.6052 67.1011 47.3541C67.0797 47.0482 66.9578 46.8457 66.7352 46.7465C66.5168 46.6425 66.2022 46.6048 65.7912 46.6336C65.3301 46.6658 65.0116 46.8028 64.8358 47.0445C64.7106 47.223 64.6353 47.4577 64.6097 47.7486L62.7262 47.8803C62.7216 47.2245 62.8668 46.6752 63.1616 46.2324ZM64.9805 51.3773C65.1736 51.5152 65.4026 51.5749 65.6675 51.5564C66.0875 51.527 66.4648 51.3767 66.7991 51.1056C67.138 50.8341 67.2915 50.3714 67.2595 49.7175L67.2088 48.9915C67.0909 49.0778 66.9698 49.1505 66.8455 49.2096C66.7254 49.2639 66.5572 49.3193 66.3409 49.3757L65.9083 49.4885C65.5025 49.5903 65.2142 49.7 65.0434 49.8174C64.7545 50.0166 64.6232 50.3034 64.6494 50.6778C64.6727 51.0111 64.783 51.2443 64.9805 51.3773ZM78.0033 51.8845L75.6472 52.0492L73.6364 48.9825L72.8872 49.8815L73.0514 52.2307L71.1337 52.3648L70.4301 42.3035L72.3479 42.1694L72.7282 47.6076L74.9632 44.6295L77.3809 44.4604L74.9712 47.4989L78.0033 51.8845ZM80.4469 44.2116L80.969 51.6771L78.9896 51.8155L78.4675 44.35L80.4469 44.2116ZM80.2587 41.5199L80.3847 43.3212L78.4053 43.4596L78.2793 41.6583L80.2587 41.5199ZM88.6534 44.443C89.3011 45.0447 89.6686 45.9688 89.7557 47.2153C89.8477 48.5303 89.621 49.5533 89.0756 50.2843C88.5348 51.015 87.7986 51.4129 86.8672 51.478C86.2736 51.5195 85.7701 51.4056 85.3566 51.1363C85.1305 50.9869 84.9037 50.7619 84.6762 50.4612L84.9483 54.3514L83.0168 54.4865L82.2893 44.0827L84.1591 43.952L84.2362 45.0547C84.4236 44.7158 84.6295 44.4445 84.8538 44.2407C85.2643 43.877 85.7686 43.6743 86.3667 43.6324C87.2389 43.5715 88.0011 43.8416 88.6534 44.443ZM87.7488 47.452C87.7086 46.8767 87.5406 46.3768 87.2448 45.9524C86.9535 45.5277 86.5134 45.336 85.9244 45.3771C85.2166 45.4266 84.7538 45.7962 84.5359 46.486C84.4238 46.8517 84.387 47.3085 84.4253 47.8565C84.4859 48.724 84.7591 49.3174 85.2449 49.6368C85.5332 49.8231 85.8646 49.9032 86.239 49.877C86.7824 49.839 87.1809 49.6001 87.4346 49.1602C87.6929 48.72 87.7977 48.1506 87.7488 47.452ZM102.221 45.7586L97.3175 46.1015L97.499 48.6973L103.088 48.3065L103.215 50.1215L95.5643 50.6565L94.8584 40.5609L102.262 40.0432L102.387 41.8308L97.045 42.2044L97.1949 44.3481L102.099 44.0052L102.221 45.7586ZM108.021 48.3882L108.123 49.8471L107.201 49.946C106.281 50.0424 105.64 49.9267 105.277 49.5987C105.043 49.3903 104.909 49.0532 104.876 48.5875L104.555 43.9918L103.514 44.0646L103.417 42.6742L104.458 42.6014L104.312 40.5193L106.244 40.3842L106.389 42.4664L107.601 42.3816L107.699 43.7719L106.486 43.8567L106.762 47.8018C106.784 48.1077 106.836 48.2968 106.919 48.369C107.002 48.4366 107.242 48.4565 107.639 48.4287C107.698 48.4246 107.76 48.4203 107.824 48.4158C107.892 48.4065 107.958 48.3973 108.021 48.3882Z" fill="white"/>
<rect x="133.858" y="24.3754" width="134.291" height="37.0917" rx="7.03058" transform="rotate(-4 133.858 24.3754)" fill="#222123"/>
<path d="M156.862 33.4916L159.626 38.6919L165.511 38.8962L161.419 43.1315L163.044 48.792L157.751 46.2093L152.87 49.5034L153.691 43.6719L149.049 40.0473L154.849 39.0259L156.862 33.4916Z" stroke="white" stroke-width="2.34353" stroke-linejoin="round"/>
<path d="M181.231 42.5807L177.512 42.8407L176.959 44.9648L174.753 45.1191L177.65 34.7716L180.034 34.6049L184.315 44.4505L182.027 44.6104L181.231 42.5807ZM180.521 40.8822L178.983 36.9978L177.959 41.0613L180.521 40.8822ZM189.513 44.2865C188.897 44.3296 188.393 44.241 188.001 44.0206C187.767 43.8901 187.507 43.6514 187.222 43.3043L187.287 44.2426L185.376 44.3762L184.671 34.2944L186.616 34.1584L186.867 37.7473C187.09 37.383 187.343 37.0992 187.627 36.8958C187.962 36.6429 188.402 36.4975 188.945 36.4595C189.927 36.3908 190.719 36.6911 191.321 37.3602C191.927 38.0289 192.27 38.9227 192.348 40.0414C192.429 41.2011 192.222 42.1814 191.728 42.9823C191.233 43.7831 190.495 44.2179 189.513 44.2865ZM190.315 40.39C190.277 39.8604 190.178 39.4268 190.017 39.0894C189.711 38.4501 189.208 38.1548 188.51 38.2037C187.802 38.2532 187.338 38.6091 187.119 39.2714C187.005 39.6235 186.968 40.0711 187.006 40.6145C187.051 41.2538 187.229 41.7735 187.542 42.1738C187.854 42.5741 188.3 42.7539 188.88 42.7134C189.382 42.6783 189.759 42.4478 190.009 42.0219C190.259 41.5961 190.361 41.0521 190.315 40.39ZM199.79 36.8161C200.475 37.562 200.855 38.4737 200.931 39.5513C201.007 40.6472 200.758 41.6075 200.182 42.4324C199.607 43.2527 198.677 43.7077 197.394 43.7974C196.111 43.8871 195.127 43.5659 194.443 42.8337C193.758 42.097 193.377 41.1807 193.301 40.0848C193.226 39.0073 193.475 38.0515 194.05 37.2175C194.625 36.3835 195.554 35.9216 196.837 35.8319C198.12 35.7422 199.104 36.0703 199.79 36.8161ZM196.946 37.483C196.375 37.5229 195.948 37.7569 195.666 38.185C195.389 38.6082 195.276 39.1943 195.328 39.9431C195.381 40.6919 195.574 41.2588 195.908 41.6438C196.247 42.0285 196.702 42.2009 197.273 42.1609C197.844 42.121 198.268 41.8872 198.545 41.4594C198.823 41.0317 198.935 40.4434 198.883 39.6945C198.83 38.9457 198.637 38.3811 198.303 38.0006C197.969 37.6157 197.516 37.4431 196.946 37.483ZM205.687 36.9062C205.025 36.9524 204.591 37.265 204.383 37.8439C204.276 38.1496 204.239 38.5331 204.271 38.9943L204.554 43.0352L202.609 43.1712L202.087 35.7194L203.971 35.5877L204.047 36.6767C204.271 36.2756 204.49 35.9828 204.701 35.7982C205.082 35.4687 205.581 35.2824 206.197 35.2393C206.969 35.1854 207.613 35.3445 208.13 35.7167C208.651 36.084 208.945 36.7357 209.01 37.6718L209.362 42.699L207.362 42.8388L207.044 38.2979C207.017 37.9052 206.943 37.6075 206.824 37.4048C206.605 37.0347 206.226 36.8685 205.687 36.9062ZM217.407 39.934C217.388 40.3804 217.188 40.8463 216.809 41.3316C216.221 42.1024 215.351 42.5279 214.201 42.6084C213.251 42.6748 212.392 42.4275 211.623 41.8664C210.854 41.3053 210.422 40.3353 210.325 38.9563C210.235 37.6641 210.492 36.6505 211.097 35.9154C211.706 35.1799 212.533 34.7756 213.579 34.7025C214.2 34.6591 214.768 34.7364 215.282 34.9345C215.796 35.1325 216.232 35.4714 216.591 35.951C216.915 36.3734 217.14 36.8739 217.268 37.4522C217.342 37.7912 217.397 38.2829 217.433 38.9273L212.323 39.2846C212.403 40.0315 212.675 40.5402 213.139 40.8106C213.421 40.979 213.752 41.0499 214.131 41.0234C214.533 40.9953 214.851 40.8583 215.087 40.6124C215.215 40.4796 215.324 40.2999 215.414 40.0734L217.407 39.934ZM215.315 37.7815C215.247 37.2677 215.063 36.8884 214.761 36.6433C214.464 36.3934 214.107 36.283 213.692 36.312C213.24 36.3436 212.898 36.5098 212.667 36.8104C212.44 37.1108 212.311 37.5052 212.281 37.9936L215.315 37.7815ZM227.525 41.7111C226.082 41.812 224.952 41.4964 224.134 40.7644C223.044 39.8725 222.435 38.5202 222.309 36.7074C222.179 34.8582 222.594 33.4343 223.552 32.4359C224.259 31.5972 225.335 31.1274 226.777 31.0266C228.22 30.9257 229.35 31.2412 230.168 31.9733C231.251 32.829 231.857 34.1815 231.986 36.0307C232.113 37.8434 231.701 39.2671 230.75 40.3017C230.043 41.1404 228.967 41.6102 227.525 41.7111ZM229.328 38.8595C229.773 38.2089 229.956 37.3152 229.877 36.1782C229.798 35.0458 229.49 34.1887 228.954 33.6067C228.422 33.0199 227.738 32.7557 226.902 32.8142C226.067 32.8726 225.422 33.2274 224.967 33.8786C224.513 34.5299 224.325 35.4239 224.405 36.5609C224.484 37.6978 224.794 38.5571 225.335 39.1387C225.876 39.7203 226.564 39.9819 227.4 39.9235C228.235 39.8651 228.878 39.5104 229.328 38.8595ZM233.134 30.8917L235.086 30.7553L235.792 40.8508L233.84 40.9873L233.134 30.8917Z" fill="white"/>
<path d="M254.91 31.93L250.149 37.4064L244.673 32.6458" stroke="white" stroke-width="2.34353"/>
</svg>
